<svg xmlns="http://www.w3.org/2000/svg" width="244.401" height="242.163" viewBox="0 0 244.401 242.163"><g id="Logo" transform="translate(-18.795 -19.918)"><g id="Group_2" data-name="Group 2" transform="translate(0 0)"><path id="Path_740" data-name="Path 740" d="M132.524,190.158s-21.865-9.9-38.088-37.983S80.558,100.21,80.558,100.21s19.532-13.977,51.966-13.977,51.966,13.977,51.966,13.977,2.344,23.885-13.878,51.964S132.524,190.158,132.524,190.158Z" transform="translate(8.476 9.086)" fill="#e51f49"></path><path id="Path_741" data-name="Path 741" d="M147.3,164.422l-31.041-25.717,11.439-8.742-22.839-19.277,21.454-16.4,18.477,35.824L133.678,138.6Z" transform="translate(11.049 9.935)" fill="#fff"></path></g><g id="Group_4" data-name="Group 4" transform="translate(26.917 19.918)"><g id="Group_3" data-name="Group 3"><path id="Path_742" data-name="Path 742" d="M67.08,92.859c-11.653-3.2-13.948-3.516-15.127-2.652l-1.4,2.616L63.4,99.717l-4.786,8.924L24.351,90.256S27.4,83.851,30.582,77.9c4.354-8.115,10.187-9.915,15.936-6.838,4.584,2.456,6.454,6.838,6.21,10.089,1.932-1.563,5.01-1.73,19.781,1.577ZM36.122,82.951c-.349.649-.838,1.7-.838,1.7l9.168,4.9,2.163-4.026a7.3,7.3,0,0,0-3.788-4.43C40.049,79.6,37.552,80.278,36.122,82.951Z" transform="translate(-24.351 -12.579)" fill="#fff"></path><path id="Path_743" data-name="Path 743" d="M80.052,77.872c-8.184,7.4-17.478,3.922-24.756-4.137C47.678,65.3,45.319,55.176,54.272,47.1c8.184-7.389,17.443-3.964,24.713,4.1C86.611,59.634,89,69.793,80.052,77.872Zm-20.9-24.085c-2.372,2.134-.649,7.207,3.712,12.043,4.947,5.469,9.768,7.654,12.315,5.358,2.372-2.142.649-7.123-3.718-11.966C66.517,53.76,61.7,51.485,59.148,53.788Z" transform="translate(-21.806 -15.385)" fill="#fff"></path><path id="Path_744" data-name="Path 744" d="M100.386,32.639a13.46,13.46,0,0,0-6.859.824c-4.1,1.765-4.7,7.179-2.338,12.705,2.777,6.468,6.754,9.488,11.171,7.6a13.1,13.1,0,0,0,5.707-5.129l3.175,8.415a17.943,17.943,0,0,1-7.87,6.175c-9.831,4.221-17.248-.872-21.853-11.6C76.81,40.634,78.226,30.309,88.741,25.8a19.258,19.258,0,0,1,8.937-1.654Z" transform="translate(-18.598 -17.379)" fill="#fff"></path><path id="Path_745" data-name="Path 745" d="M130.313,57.517c-6.573-14.38-7.647-16.033-8.638-16.375l-.571.028,1,16.836-10.27.607-2.3-38.793,10.263-.607.992,16.661c1.479-3.014,7.34-17.15,7.34-17.15l11.813-.705L130.264,36.4c1.3.67,2.777,2.352,12.147,20.4Z" transform="translate(-15.375 -18.019)" fill="#fff"></path><path id="Path_746" data-name="Path 746" d="M179.519,40.74a13.5,13.5,0,0,0-5.428-4.277c-4.145-1.647-8.4,1.751-10.634,7.325-2.616,6.524-1.953,11.47,2.5,13.257a13.234,13.234,0,0,0,7.661.426l-3.72,8.184a17.884,17.884,0,0,1-9.921-1.207c-9.922-3.977-11.554-12.823-7.215-23.653,4.445-11.087,12.754-17.373,23.366-13.116a19.338,19.338,0,0,1,7.48,5.163Z" transform="translate(-11.059 -17.142)" fill="#fff"></path><path id="Path_747" data-name="Path 747" d="M169.393,68.54l22.76-31.5,8.568,6.2-22.753,31.5Z" transform="translate(-9.068 -16.015)" fill="#fff"></path><path id="Path_748" data-name="Path 748" d="M211.117,65.064,188.6,85.78l-7.089-7.7,22.516-20.715-5.31-5.763,6.1-5.616,17.659,19.194-6.1,5.6Z" transform="translate(-7.791 -15.073)" fill="#fff"></path><path id="Path_749" data-name="Path 749" d="M212.948,96.136l-13.731,7.04-4.822-9.4,13.522-6.943,16.111-20.422,5.428,10.577L218.607,87.9l15.106-2.623,4.932,9.615Z" transform="translate(-6.434 -12.92)" fill="#fff"></path></g></g><g id="Group_5" data-name="Group 5" transform="translate(31.32 175.083)"><path id="Path_750" data-name="Path 750" d="M34.746,187.432c-3.343-5.463-6.412-10.759-6.412-10.759l29.814-18.281s3.552,5.2,7.284,11.3c4.863,7.953,4,13.242.013,15.691a7.679,7.679,0,0,1-9.322-.655c1.3,3.7.678,8.1-3.44,10.626C46.81,198.959,40.453,196.754,34.746,187.432Zm13.012-7.7-1.466-2.393-7.361,4.513s.7,1.242,1.27,2.17c1.521,2.492,4.026,3.636,6.524,2.108C49.1,184.676,49.217,182.115,47.759,179.73ZM59.488,171.8c-.482-.781-1.186-1.828-1.186-1.828L51.247,174.3l2.359,3.851a5.378,5.378,0,0,0,4.7-.6C60.408,176.261,60.827,173.988,59.488,171.8Z" transform="translate(-28.334 -158.393)" fill="#fff"></path><path id="Path_751" data-name="Path 751" d="M62.25,218.345c4.765-9.831,5.407-11.833,4.772-13.117l-2.281-1.919L56.3,213.342l-7.759-6.51,22.523-26.758s5.631,4.333,10.8,8.673c7.048,5.924,7.891,11.673,4.116,16.159a9.861,9.861,0,0,1-10.48,3.217c1.187,2.142.893,4.974-4.444,17.624Zm14-25.774c-.565-.481-1.479-1.179-1.479-1.179l-6.029,7.159,3.5,2.944a6.244,6.244,0,0,0,4.765-2.379C78.835,196.953,78.57,194.511,76.253,192.571Z" transform="translate(-26.205 -156.108)" fill="#fff"></path><path id="Path_752" data-name="Path 752" d="M76.54,228.277,90.3,196.133l20.5,8.778-2.812,6.565-11.142-4.758-2.6,6.042,9.2,3.935-2.714,6.342-9.2-3.942-2.777,6.475,11.407,4.877L97.3,237.159Z" transform="translate(-23.255 -154.416)" fill="#fff"></path><path id="Path_753" data-name="Path 753" d="M119.464,204.378l.586,18.7c.056,1.165-.007,3.935-.007,3.935a28.772,28.772,0,0,1,.746-3.823l6.043-18.789,7.542.007,6.077,18.922a35.447,35.447,0,0,1,.678,3.88s-.112-2.819-.05-3.977l.781-18.81,9.26.021-2.82,36.106-11.372-.013-6.475-19.613a19.842,19.842,0,0,1-.558-3.671,23.825,23.825,0,0,1-.642,3.615L123.1,240.513l-11.373-.028-2.212-36.121Z" transform="translate(-19.78 -153.549)" fill="#fff"></path><path id="Path_754" data-name="Path 754" d="M160.385,236.944l-11.261-33.128,10.012-3.391L170.4,233.546Z" transform="translate(-15.607 -153.964)" fill="#fff"></path><path id="Path_755" data-name="Path 755" d="M197.343,219.545l-17.457-8.616a19.774,19.774,0,0,1-3.238-2.218s1.647,1.807,2.532,3.007l9.658,13.606-7.85,5.33L161.319,201.7l8.038-5.456,17.122,8.213a30.032,30.032,0,0,1,3.474,2.372s-1.785-2.024-2.846-3.482l-9.2-12.922,7.849-5.323,19.669,28.942Z" transform="translate(-14.322 -155.578)" fill="#fff"></path><path id="Path_756" data-name="Path 756" d="M225.918,187.12a31.926,31.926,0,0,1-3.886,6.907c-6.88,9.572-15.253,9.684-23.848,3.5s-12.043-15.412-4.571-25.808a28.332,28.332,0,0,1,8.589-7.912l5.54,5.254a26.473,26.473,0,0,0-7.675,6.8c-3,4.186-.914,9.21,3.6,12.448,5.512,3.956,10.32,4.312,13.187.328a9.751,9.751,0,0,0,1.3-2.526l-4.089-2.931-2.735,3.8-5.142-3.692,7.94-11.051,13.948,10.019C227.41,183.541,226.685,185.34,225.918,187.12Z" transform="translate(-11.352 -157.822)" fill="#fff"></path></g><g id="Group_6" data-name="Group 6" transform="translate(18.795 138.418)"><path id="Path_757" data-name="Path 757" d="M27.127,144.795l-.746-3.712h-3.9l-.726,3.712H17l4.78-19.572h5.582l4.8,19.572ZM24.7,131.754c-.154-.858-.259-2.008-.259-2.008s-.125,1.151-.306,2.008l-1.11,5.757h2.791Z" transform="translate(-17.003 -125.223)" fill="#fff"></path><path id="Path_758" data-name="Path 758" d="M45.068,144.795l-.279-10.131c-.029-.636,0-2.129,0-2.129a17.88,17.88,0,0,1-.335,2.073L41.74,144.795H38.328l-2.762-10.242c-.154-.608-.314-2.108-.314-2.108s.055,1.529.028,2.163l-.335,10.187H30.758L32,125.223h5.142l2.945,10.619a12.909,12.909,0,0,1,.259,1.989,15.067,15.067,0,0,1,.286-1.96l2.762-10.648h5.142l1.032,19.572Z" transform="translate(-15.554 -125.223)" fill="#fff"></path><path id="Path_759" data-name="Path 759" d="M53.868,129.221v4.173H58.11V137.6H53.868v7.194H49.221V125.223H59.01v4Z" transform="translate(-13.608 -125.223)" fill="#fff"></path></g><g id="Group_7" data-name="Group 7" transform="translate(225.693 135.641)"><path id="Path_760" data-name="Path 760" d="M210.815,144.676c-4.6,0-6.636-3.88-6.636-10.857,0-6.851,2.4-11.108,7.054-11.108,4.6,0,6.663,3.88,6.663,10.857C217.9,140.419,215.468,144.676,210.815,144.676ZM210.983,127c-1.187,0-1.948,2.686-1.948,6.726,0,4,.594,6.663,2.031,6.663,1.186,0,1.947-2.693,1.947-6.726C213.012,129.66,212.42,127,210.983,127Z" transform="translate(-204.179 -122.711)" fill="#fff"></path><path id="Path_761" data-name="Path 761" d="M221.351,144.676a7.908,7.908,0,0,1-4.857-1.4l.537-4.417a6.483,6.483,0,0,0,3.865,1.41,2.228,2.228,0,0,0,2.428-2.344c0-1.626-1.3-2.721-3.356-2.909v-3.2a2.811,2.811,0,0,0,2.6-2.847,1.566,1.566,0,0,0-1.584-1.751,6.068,6.068,0,0,0-3.384,1.563l-.314-3.907a7.362,7.362,0,0,1,5.086-2.163c3.468,0,4.968,2.254,4.968,4.885a5.173,5.173,0,0,1-2.456,4.751l.056.063c1.919.565,3.419,2.442,3.419,5.2C228.356,141.577,226.039,144.676,221.351,144.676Z" transform="translate(-202.881 -122.711)" fill="#fff"></path><path id="Path_762" data-name="Path 762" d="M232.233,144.676a7.908,7.908,0,0,1-4.857-1.4l.537-4.417a6.483,6.483,0,0,0,3.865,1.41,2.228,2.228,0,0,0,2.429-2.344c0-1.626-1.3-2.721-3.356-2.909v-3.2a2.811,2.811,0,0,0,2.6-2.847,1.566,1.566,0,0,0-1.584-1.751,6.071,6.071,0,0,0-3.384,1.563l-.314-3.907a7.364,7.364,0,0,1,5.086-2.163c3.468,0,4.969,2.254,4.969,4.885a5.175,5.175,0,0,1-2.456,4.751l.055.063c1.919.565,3.419,2.442,3.419,5.2C239.238,141.577,236.922,144.676,232.233,144.676Z" transform="translate(-201.735 -122.711)" fill="#fff"></path></g></g></svg>