<svg xmlns="http://www.w3.org/2000/svg" width="327" height="32" viewBox="0 0 327 32"><g id="Payments" transform="translate(-219 -5668)"><g id="Layer_2" data-name="Layer 2" transform="translate(219 5668)"><g id="Layer_1" data-name="Layer 1"><path id="Path_25" data-name="Path 25" d="M0,0V32H18.66C31,32,36.3,25.11,36.3,16S31,0,18.66,0Z" fill="#fff"></path><path id="Path_26" data-name="Path 26" d="M2,2H18.66C30,2,34.28,8.19,34.28,16c0,9.33-6,14-15.62,14H2ZM3.63,3.63V28.37h15c9.07,0,14-4.23,14-12.4,0-8.4-5.35-12.34-14-12.34Z"></path><rect id="Rectangle_8" data-name="Rectangle 8" width="4.81" height="8.56" transform="translate(5.65 17.79)"></rect><path id="Path_27" data-name="Path 27" d="M11,13.47a3,3,0,1,1-3-3,3,3,0,0,1,3,3Z"></path><path id="Path_28" data-name="Path 28" d="M20.55,14.87v1.39H17.12V10.69h3.32v1.39H18.5v.64h1.83v1.39H18.5v.76Zm.6,1.39,1.67-5.57h2l1.67,5.57H25l-.31-1.08H22.9l-.31,1.08Zm2.16-2.46h1l-.46-1.57h-.08Zm3.86-3.11h1.39v4.18h2.05c-.56-7.58-6.53-9.22-11.95-9.22H12.88v5h.86a2.45,2.45,0,0,1,2.52,2.76c0,1.75-.94,2.8-2.52,2.8h-.86V26.35h5.78c8.81,0,11.88-4.09,12-10.09H27.17ZM12.88,12.08v2.79h.86c.59,0,1.14-.17,1.14-1.42s-.61-1.37-1.14-1.37Z" fill="#d50072"></path></g></g><g id="Layer_2-2" data-name="Layer 2" transform="translate(272 5668)"><g id="Layer_1-2" data-name="Layer 1"><path id="Path_30" data-name="Path 30" d="M52,0H4A4,4,0,0,0,0,4V28a4,4,0,0,0,4,4H52a4,4,0,0,0,4-4V4A4,4,0,0,0,52,0Z" fill="#fff"></path><path id="Path_31" data-name="Path 31" d="M18,12.22a2.47,2.47,0,0,0,.56-1.77,2.58,2.58,0,0,0-1.63.83A2.35,2.35,0,0,0,16.37,13,1.9,1.9,0,0,0,18,12.22m.56.9a13.892,13.892,0,0,0-2.11.51c-.43,0-1.09-.48-1.81-.48a2.72,2.72,0,0,0-2.28,1.39c-1,1.68-.26,4.17.7,5.53.45.67,1,1.42,1.74,1.39s1-.45,1.79-.45,1.07.45,1.81.43,1.23-.67,1.69-1.37a5.45,5.45,0,0,0,.75-1.55,2.42,2.42,0,0,1-.3-4.3,2.51,2.51,0,0,0-2-1.1"></path><path id="Path_32" data-name="Path 32" d="M26.44,11.23a3.17,3.17,0,0,1,3.34,3.31,3.21,3.21,0,0,1-3.39,3.34H24.22v3.45H22.65V11.23Zm-2.22,5.34H26a1.89,1.89,0,0,0,2.14-2,1.88,1.88,0,0,0-2.14-2H24.2v4Zm6,2.7c0-1.28,1-2.08,2.75-2.19L35,17v-.56a1.28,1.28,0,0,0-1.5-1.34A1.4,1.4,0,0,0,32,16.17H30.5c.08-1.34,1.23-2.32,3-2.32s2.94.93,2.94,2.43v5.07H35v-1.2h0a2.62,2.62,0,0,1-2.33,1.34,2.27,2.27,0,0,1-2.49-2.22ZM35,18.6V18l-1.81.11c-.91.05-1.42.46-1.42,1.1s.54,1.07,1.34,1.07A1.77,1.77,0,0,0,35,18.6Zm2.86,5.48V22.85a2.69,2.69,0,0,0,.49,0,1.23,1.23,0,0,0,1.3-1l.14-.46L37.08,14h1.63l1.87,6h0l1.87-6h1.61L41.3,21.77c-.64,1.79-1.36,2.35-2.88,2.35a2.724,2.724,0,0,1-.62-.05Z"></path></g></g><g id="Layer_2-3" data-name="Layer 2" transform="translate(490 5668)"><g id="Layer_1-3" data-name="Layer 1"><path id="Path_33" data-name="Path 33" d="M52,0H4A4,4,0,0,0,0,4V28a4,4,0,0,0,4,4H52a4,4,0,0,0,4-4V4A4,4,0,0,0,52,0Z" fill="#fff"></path><path id="Path_34" data-name="Path 34" d="M15,11.67a2.92,2.92,0,0,0-2.28-.8h-3a.47.47,0,0,0-.44.38l-1.34,8a.28.28,0,0,0,.24.3h1.5a.48.48,0,0,0,.41-.3l.33-2.18a.42.42,0,0,1,.42-.38h1a3.18,3.18,0,0,0,3.53-2.8,1.5,1.5,0,0,0,0-.22A2.37,2.37,0,0,0,15,11.67Zm-1.92,2.1c-.16,1.12-1,1.12-1.84,1.12h-.47l.32-2.1a.28.28,0,0,1,.25-.23h.22c.55,0,1.1,0,1.36.32a1,1,0,0,1,.14.89Z" fill="#253b80"></path><path id="Path_35" data-name="Path 35" d="M22,13.73H20.52a.3.3,0,0,0-.27.21v.44l-.11-.17a2.13,2.13,0,0,0-1.76-.62,3.45,3.45,0,0,0-3.34,3,2.89,2.89,0,0,0,.56,2.31,2.32,2.32,0,0,0,1.89.76,2.8,2.8,0,0,0,2.05-.86v.44a.27.27,0,0,0,.24.28h1.35a.41.41,0,0,0,.43-.36l.8-5.15a.23.23,0,0,0-.14-.31A.25.25,0,0,0,22,13.73Zm-3.77,4.36a1.28,1.28,0,0,1-1-.39A1.41,1.41,0,0,1,17,16.63a1.7,1.7,0,0,1,1.67-1.51,1.26,1.26,0,0,1,1,.42A1.2,1.2,0,0,1,20,16.6a1.67,1.67,0,0,1-1.74,1.49Z" fill="#253b80"></path><path id="Path_36" data-name="Path 36" d="M30,13.73H28.47a.44.44,0,0,0-.37.19l-2.07,3L25.16,14a.46.46,0,0,0-.42-.32H23.23a.26.26,0,0,0-.26.26A.28.28,0,0,0,23,14l1.65,4.89L23.14,21.1a.26.26,0,0,0,.06.36.27.27,0,0,0,.15.05h1.51a.42.42,0,0,0,.36-.19l5-7.26a.26.26,0,0,0-.13-.34Z" fill="#253b80"></path><path id="Path_37" data-name="Path 37" d="M37.23,11.67a3,3,0,0,0-2.28-.8H31.82a.41.41,0,0,0-.41.38l-1.28,8a.28.28,0,0,0,.24.3H32a.32.32,0,0,0,.29-.27L32.65,17a.43.43,0,0,1,.42-.37h1a3.23,3.23,0,0,0,3.54-2.86c0-.06,0-.11,0-.16a2.53,2.53,0,0,0-.38-1.94Zm-1.94,2.15c-.15,1.12-1,1.12-1.84,1.12H33l.33-2.1a.25.25,0,0,1,.26-.23h.23c.56,0,1.08,0,1.36.32a1,1,0,0,1,.13.84Z" fill="#179bd7"></path><path id="Path_38" data-name="Path 38" d="M44.26,13.73H42.75a.26.26,0,0,0-.27.21v.44l-.1-.17a2.1,2.1,0,0,0-1.76-.62,3.45,3.45,0,0,0-3.33,3,2.74,2.74,0,0,0,.55,2.31,2.31,2.31,0,0,0,1.88.76,2.88,2.88,0,0,0,2.07-.86v.44a.25.25,0,0,0,.22.28h1.38a.42.42,0,0,0,.42-.36L44.55,14a.25.25,0,0,0-.2-.3ZM40.5,18.09a1.27,1.27,0,0,1-1-.39,1.36,1.36,0,0,1-.23-1.07,1.68,1.68,0,0,1,1.67-1.51,1.19,1.19,0,0,1,1.29,1.08,1.26,1.26,0,0,1,0,.43A1.64,1.64,0,0,1,40.5,18.09Z" fill="#179bd7"></path><path id="Path_39" data-name="Path 39" d="M47.72,10.83H46.21A.23.23,0,0,0,46,11l-1.21,8.19a.24.24,0,0,0,.2.29h1.34a.43.43,0,0,0,.42-.37l1.27-8a.26.26,0,0,0-.23-.28Z" fill="#179bd7"></path></g></g><g id="Layer_2-4" data-name="Layer 2" transform="translate(344 5668)"><g id="Layer_1-4" data-name="Layer 1"><path id="Path_43" data-name="Path 43" d="M52,0H4A4,4,0,0,0,0,4V28a4,4,0,0,0,4,4H52a4,4,0,0,0,4-4V4A4,4,0,0,0,52,0Z" fill="#fff"></path><path id="Path_44" data-name="Path 44" d="M24.51,16a9,9,0,1,0,9-9,9,9,0,0,0-9,9Z" fill="#fe5000"></path><path id="Path_45" data-name="Path 45" d="M13.49,16a9,9,0,1,0,9-9,9,9,0,0,0-9,9Z" fill="#f8d173"></path><path id="Path_46" data-name="Path 46" d="M6.06,6.23V6.18a1,1,0,0,1,1-1h2.4A1,1,0,0,1,10,5.3V4.86a.81.81,0,0,0-.81-.81H4.77A.81.81,0,0,0,4,4.86V6.23Z" fill="#dda722"></path><path id="Path_47" data-name="Path 47" d="M9.48,7.93H7.08a1,1,0,0,1-1-1V6.65H4V8.23a.82.82,0,0,0,.81.82H9.15A.82.82,0,0,0,10,8.23V7.79A1,1,0,0,1,9.48,7.93Z" fill="#dda722"></path><rect id="Rectangle_10" data-name="Rectangle 10" width="3.3" height="1.63" rx="0.45" transform="translate(6.62 5.73)" fill="#dda722"></rect></g></g><g id="Layer_2-5" data-name="Layer 2" transform="translate(417 5668)"><g id="Layer_1-5" data-name="Layer 1"><path id="Path_43-2" data-name="Path 43" d="M52,0H4A4,4,0,0,0,0,4V28a4,4,0,0,0,4,4H52a4,4,0,0,0,4-4V4A4,4,0,0,0,52,0Z" fill="#fff"></path><path id="Path_44-2" data-name="Path 44" d="M24.51,16a9,9,0,1,0,9-9,9,9,0,0,0-9,9Z" fill="#00a2e5"></path><path id="Path_45-2" data-name="Path 45" d="M13.49,16a9,9,0,1,0,9-9,9,9,0,0,0-9,9Z" fill="#eb001b"></path><path id="Path_271" data-name="Path 271" d="M6.06,6.23V6.18a1,1,0,0,1,1-1h2.4A1,1,0,0,1,10,5.3V4.86a.81.81,0,0,0-.81-.81H4.77A.81.81,0,0,0,4,4.86V6.23Z" fill="#dda722"></path><path id="Path_272" data-name="Path 272" d="M9.48,7.93H7.08a1,1,0,0,1-1-1V6.65H4V8.23a.82.82,0,0,0,.81.82H9.15A.82.82,0,0,0,10,8.23V7.79A1,1,0,0,1,9.48,7.93Z" fill="#dda722"></path><rect id="Rectangle_25" data-name="Rectangle 25" width="3.3" height="1.63" rx="0.45" transform="translate(6.62 5.73)" fill="#dda722"></rect></g></g></g></svg>